M48
INCH,TZ
T1C0.016
T2C0.024
T3C0.039
T4C0.040
%
G90
G05
T1
X001706Y029997
X002270Y021802
X002435Y026828
X002605Y025912
X002690Y020479
X003035Y017828
X003235Y018528
X003935Y025069
X004435Y027228
X004458Y026542
X004650Y030257
X004845Y019906
X004927Y020317
X006004Y025818
X006435Y018728
X006835Y020642
X006935Y023828
X007499Y017613
X007654Y027270
X007935Y021528
X008295Y025812
X009817Y019277
X010155Y022422
X012698Y030287
X012698Y028330
X012835Y026928
X012935Y031028
X013739Y028937
X014335Y022828
X014839Y025727
X015035Y030287
X015035Y028328
X017135Y027728
X019010Y031829
X020001Y031829
X020035Y026418
X021435Y027028
X021435Y025228
T2
X007935Y018778
T3
X014272Y018791
X014272Y016665
X015335Y017728
X016398Y018791
X016398Y016665
T4
X005500Y035741
X005500Y034741
X005500Y033741
X005500Y032741
X006500Y035741
X006500Y034741
X006500Y033741
X006500Y032741
X007500Y035741
X007500Y034741
X007500Y033741
X007500Y032741
X008500Y035741
X008500Y034741
X008500Y033741
X008500Y032741
X009500Y035741
X009500Y034741
X009500Y033741
X009500Y032741
X010500Y035741
X010500Y034741
X010500Y033741
X010500Y032741
X011500Y035741
X011500Y034741
X011500Y033741
X011500Y032741
X012500Y035741
X012500Y034741
X012500Y033741
X012500Y032741
X013500Y035741
X013500Y034741
X013500Y033741
X013500Y032741
X014500Y035741
X014500Y034741
X014500Y033741
X014500Y032741
X015500Y035741
X015500Y034741
X015500Y033741
X015500Y032741
X016500Y035741
X016500Y034741
X016500Y033741
X016500Y032741
X017500Y035741
X017500Y034741
X017500Y033741
X017500Y032741
X018500Y035741
X018500Y034741
X018500Y033741
X018500Y032741
X019500Y035741
X019500Y034741
X019500Y033741
X019500Y032741
X020500Y035741
X020500Y034741
X020500Y033741
X020500Y032741
X021500Y035741
X021500Y034741
X021500Y033741
X021500Y032741
X022500Y035741
X022500Y034741
X022500Y033741
X022500Y032741
X023500Y035741
X023500Y034741
X023500Y033741
X023500Y032741
X024500Y035741
X024500Y034741
X024500Y033741
X024500Y032741
X025500Y035741
X025500Y034741
X025500Y033741
X025500Y032741
X026500Y035741
X026500Y034741
X026500Y033741
X026500Y032741
X027500Y035741
X027500Y034741
X027500Y033741
X027500Y032741
X028500Y035741
X028500Y034741
X028500Y033741
X028500Y032741
X029500Y035741
X029500Y034741
X029500Y033741
X029500Y032741
X030500Y035741
X030500Y034741
X030500Y033741
X030500Y032741
T0
M30
