G04 #@! TF.FileFunction,Soldermask,Top*
%FSLAX46Y46*%
G04 Gerber Fmt 4.6, Leading zero omitted, Abs format (unit mm)*
G04 Created by KiCad (PCBNEW 4.0.4-stable) date 10/14/16 15:22:56*
%MOMM*%
%LPD*%
G01*
G04 APERTURE LIST*
%ADD10C,0.100000*%
%ADD11R,1.727200X1.727200*%
%ADD12O,1.727200X1.727200*%
%ADD13R,1.400000X0.300000*%
%ADD14C,1.998980*%
%ADD15R,1.825000X2.200000*%
%ADD16R,1.600000X0.550000*%
%ADD17R,0.550000X1.600000*%
%ADD18R,3.000000X1.000000*%
%ADD19R,1.200000X0.900000*%
%ADD20O,1.473200X0.609600*%
%ADD21R,3.657600X2.032000*%
%ADD22R,1.016000X2.032000*%
%ADD23R,0.700000X0.500000*%
%ADD24R,0.700000X0.920000*%
%ADD25O,0.609600X1.473200*%
%ADD26R,1.800000X0.600000*%
%ADD27R,2.800000X1.000000*%
%ADD28R,2.500000X2.000000*%
%ADD29R,0.900000X1.200000*%
%ADD30R,1.198880X1.198880*%
%ADD31R,1.250000X1.000000*%
%ADD32R,1.000000X1.250000*%
G04 APERTURE END LIST*
D10*
D11*
X78650000Y-64990000D03*
D12*
X78650000Y-62450000D03*
X81190000Y-64990000D03*
X81190000Y-62450000D03*
X83730000Y-64990000D03*
X83730000Y-62450000D03*
X86270000Y-64990000D03*
X86270000Y-62450000D03*
X88810000Y-64990000D03*
X88810000Y-62450000D03*
X91350000Y-64990000D03*
X91350000Y-62450000D03*
X93890000Y-64990000D03*
X93890000Y-62450000D03*
X96430000Y-64990000D03*
X96430000Y-62450000D03*
X98970000Y-64990000D03*
X98970000Y-62450000D03*
X101510000Y-64990000D03*
X101510000Y-62450000D03*
X104050000Y-64990000D03*
X104050000Y-62450000D03*
X106590000Y-64990000D03*
X106590000Y-62450000D03*
X109130000Y-64990000D03*
X109130000Y-62450000D03*
X111670000Y-64990000D03*
X111670000Y-62450000D03*
X114210000Y-64990000D03*
X114210000Y-62450000D03*
X116750000Y-64990000D03*
X116750000Y-62450000D03*
X119290000Y-64990000D03*
X119290000Y-62450000D03*
X121830000Y-64990000D03*
X121830000Y-62450000D03*
X124370000Y-64990000D03*
X124370000Y-62450000D03*
X126910000Y-64990000D03*
X126910000Y-62450000D03*
X129450000Y-64990000D03*
X129450000Y-62450000D03*
X131990000Y-64990000D03*
X131990000Y-62450000D03*
X134530000Y-64990000D03*
X134530000Y-62450000D03*
X137070000Y-64990000D03*
X137070000Y-62450000D03*
X139610000Y-64990000D03*
X139610000Y-62450000D03*
X142150000Y-64990000D03*
X142150000Y-62450000D03*
D13*
X71460000Y-79010000D03*
X71460000Y-79510000D03*
X71460000Y-80010000D03*
X71460000Y-80510000D03*
X71460000Y-81010000D03*
X75860000Y-81010000D03*
X75860000Y-80510000D03*
X75860000Y-80010000D03*
X75860000Y-79510000D03*
X75860000Y-79010000D03*
D14*
X102870000Y-100330000D03*
X100169980Y-103030020D03*
X105570020Y-103030020D03*
X105570020Y-97629980D03*
X100169980Y-97629980D03*
D15*
X102852500Y-94615000D03*
X105427500Y-94615000D03*
D16*
X79570000Y-91250000D03*
X79570000Y-92050000D03*
X79570000Y-92850000D03*
X79570000Y-93650000D03*
X79570000Y-94450000D03*
X79570000Y-95250000D03*
X79570000Y-96050000D03*
X79570000Y-96850000D03*
D17*
X81020000Y-98300000D03*
X81820000Y-98300000D03*
X82620000Y-98300000D03*
X83420000Y-98300000D03*
X84220000Y-98300000D03*
X85020000Y-98300000D03*
X85820000Y-98300000D03*
X86620000Y-98300000D03*
D16*
X88070000Y-96850000D03*
X88070000Y-96050000D03*
X88070000Y-95250000D03*
X88070000Y-94450000D03*
X88070000Y-93650000D03*
X88070000Y-92850000D03*
X88070000Y-92050000D03*
X88070000Y-91250000D03*
D17*
X86620000Y-89800000D03*
X85820000Y-89800000D03*
X85020000Y-89800000D03*
X84220000Y-89800000D03*
X83420000Y-89800000D03*
X82620000Y-89800000D03*
X81820000Y-89800000D03*
X81020000Y-89800000D03*
D11*
X78650000Y-59910000D03*
D12*
X78650000Y-57370000D03*
X81190000Y-59910000D03*
X81190000Y-57370000D03*
X83730000Y-59910000D03*
X83730000Y-57370000D03*
X86270000Y-59910000D03*
X86270000Y-57370000D03*
X88810000Y-59910000D03*
X88810000Y-57370000D03*
X91350000Y-59910000D03*
X91350000Y-57370000D03*
X93890000Y-59910000D03*
X93890000Y-57370000D03*
X96430000Y-59910000D03*
X96430000Y-57370000D03*
X98970000Y-59910000D03*
X98970000Y-57370000D03*
X101510000Y-59910000D03*
X101510000Y-57370000D03*
X104050000Y-59910000D03*
X104050000Y-57370000D03*
X106590000Y-59910000D03*
X106590000Y-57370000D03*
X109130000Y-59910000D03*
X109130000Y-57370000D03*
X111670000Y-59910000D03*
X111670000Y-57370000D03*
X114210000Y-59910000D03*
X114210000Y-57370000D03*
X116750000Y-59910000D03*
X116750000Y-57370000D03*
X119290000Y-59910000D03*
X119290000Y-57370000D03*
X121830000Y-59910000D03*
X121830000Y-57370000D03*
X124370000Y-59910000D03*
X124370000Y-57370000D03*
X126910000Y-59910000D03*
X126910000Y-57370000D03*
X129450000Y-59910000D03*
X129450000Y-57370000D03*
X131990000Y-59910000D03*
X131990000Y-57370000D03*
X134530000Y-59910000D03*
X134530000Y-57370000D03*
X137070000Y-59910000D03*
X137070000Y-57370000D03*
X139610000Y-59910000D03*
X139610000Y-57370000D03*
X142150000Y-59910000D03*
X142150000Y-57370000D03*
D18*
X122428000Y-82347596D03*
X122428000Y-86947596D03*
D19*
X105580000Y-88900000D03*
X107780000Y-88900000D03*
D20*
X103971822Y-82742596D03*
X103971822Y-84012596D03*
X103971822Y-85282596D03*
X103971822Y-86552596D03*
X109559822Y-86552596D03*
X109559822Y-85282596D03*
X109559822Y-84012596D03*
X109559822Y-82742596D03*
D21*
X115655822Y-81345596D03*
D22*
X115655822Y-87949596D03*
X117941822Y-87949596D03*
X113369822Y-87949596D03*
D23*
X115570000Y-103940000D03*
X115570000Y-91640000D03*
D24*
X114300000Y-91440000D03*
X109220000Y-91440000D03*
X110490000Y-91440000D03*
X111760000Y-91440000D03*
X113030000Y-91440000D03*
X120650000Y-91440000D03*
X119380000Y-91440000D03*
X118110000Y-91440000D03*
X116840000Y-91440000D03*
X121920000Y-91440000D03*
X121920000Y-104140000D03*
X116840000Y-104140000D03*
X118110000Y-104140000D03*
X119380000Y-104140000D03*
X120650000Y-104140000D03*
X113030000Y-104140000D03*
X111760000Y-104140000D03*
X110490000Y-104140000D03*
X109220000Y-104140000D03*
X114300000Y-104140000D03*
D25*
X80645000Y-77724000D03*
X81915000Y-77724000D03*
X83185000Y-77724000D03*
X84455000Y-77724000D03*
X84455000Y-72136000D03*
X83185000Y-72136000D03*
X81915000Y-72136000D03*
X80645000Y-72136000D03*
X68580000Y-72644000D03*
X69850000Y-72644000D03*
X71120000Y-72644000D03*
X72390000Y-72644000D03*
X72390000Y-67056000D03*
X71120000Y-67056000D03*
X69850000Y-67056000D03*
X68580000Y-67056000D03*
D26*
X74065000Y-90170000D03*
X74065000Y-91420000D03*
X74065000Y-92670000D03*
X74065000Y-93920000D03*
X74065000Y-95170000D03*
X74065000Y-96420000D03*
D27*
X70715000Y-98145000D03*
X70715000Y-88445000D03*
D28*
X92075000Y-97250000D03*
X92075000Y-93250000D03*
D29*
X125730000Y-89830000D03*
X125730000Y-87630000D03*
D19*
X83650000Y-68580000D03*
X81450000Y-68580000D03*
X73490000Y-63500000D03*
X71290000Y-63500000D03*
D29*
X109220000Y-72220000D03*
X109220000Y-70020000D03*
X111125000Y-72220000D03*
X111125000Y-70020000D03*
D30*
X125730000Y-93980000D03*
X125730000Y-91881960D03*
D31*
X74422000Y-70850000D03*
X74422000Y-68850000D03*
X86614000Y-75930000D03*
X86614000Y-73930000D03*
D32*
X71739000Y-77089000D03*
X69739000Y-77089000D03*
M02*
