G04 #@! TF.FileFunction,Soldermask,Bot*
%FSLAX46Y46*%
G04 Gerber Fmt 4.6, Leading zero omitted, Abs format (unit mm)*
G04 Created by KiCad (PCBNEW 4.0.4-stable) date 10/19/16 10:10:24*
%MOMM*%
%LPD*%
G01*
G04 APERTURE LIST*
%ADD10C,0.100000*%
%ADD11R,1.727200X1.727200*%
%ADD12O,1.727200X1.727200*%
%ADD13C,1.998980*%
G04 APERTURE END LIST*
D10*
D11*
X78650000Y-64990000D03*
D12*
X78650000Y-62450000D03*
X81190000Y-64990000D03*
X81190000Y-62450000D03*
X83730000Y-64990000D03*
X83730000Y-62450000D03*
X86270000Y-64990000D03*
X86270000Y-62450000D03*
X88810000Y-64990000D03*
X88810000Y-62450000D03*
X91350000Y-64990000D03*
X91350000Y-62450000D03*
X93890000Y-64990000D03*
X93890000Y-62450000D03*
X96430000Y-64990000D03*
X96430000Y-62450000D03*
X98970000Y-64990000D03*
X98970000Y-62450000D03*
X101510000Y-64990000D03*
X101510000Y-62450000D03*
X104050000Y-64990000D03*
X104050000Y-62450000D03*
X106590000Y-64990000D03*
X106590000Y-62450000D03*
X109130000Y-64990000D03*
X109130000Y-62450000D03*
X111670000Y-64990000D03*
X111670000Y-62450000D03*
X114210000Y-64990000D03*
X114210000Y-62450000D03*
X116750000Y-64990000D03*
X116750000Y-62450000D03*
X119290000Y-64990000D03*
X119290000Y-62450000D03*
X121830000Y-64990000D03*
X121830000Y-62450000D03*
X124370000Y-64990000D03*
X124370000Y-62450000D03*
X126910000Y-64990000D03*
X126910000Y-62450000D03*
X129450000Y-64990000D03*
X129450000Y-62450000D03*
X131990000Y-64990000D03*
X131990000Y-62450000D03*
X134530000Y-64990000D03*
X134530000Y-62450000D03*
X137070000Y-64990000D03*
X137070000Y-62450000D03*
X139610000Y-64990000D03*
X139610000Y-62450000D03*
X142150000Y-64990000D03*
X142150000Y-62450000D03*
D13*
X103251000Y-102489000D03*
X100550980Y-105189020D03*
X105951020Y-105189020D03*
X105951020Y-99788980D03*
X100550980Y-99788980D03*
D11*
X78650000Y-59910000D03*
D12*
X78650000Y-57370000D03*
X81190000Y-59910000D03*
X81190000Y-57370000D03*
X83730000Y-59910000D03*
X83730000Y-57370000D03*
X86270000Y-59910000D03*
X86270000Y-57370000D03*
X88810000Y-59910000D03*
X88810000Y-57370000D03*
X91350000Y-59910000D03*
X91350000Y-57370000D03*
X93890000Y-59910000D03*
X93890000Y-57370000D03*
X96430000Y-59910000D03*
X96430000Y-57370000D03*
X98970000Y-59910000D03*
X98970000Y-57370000D03*
X101510000Y-59910000D03*
X101510000Y-57370000D03*
X104050000Y-59910000D03*
X104050000Y-57370000D03*
X106590000Y-59910000D03*
X106590000Y-57370000D03*
X109130000Y-59910000D03*
X109130000Y-57370000D03*
X111670000Y-59910000D03*
X111670000Y-57370000D03*
X114210000Y-59910000D03*
X114210000Y-57370000D03*
X116750000Y-59910000D03*
X116750000Y-57370000D03*
X119290000Y-59910000D03*
X119290000Y-57370000D03*
X121830000Y-59910000D03*
X121830000Y-57370000D03*
X124370000Y-59910000D03*
X124370000Y-57370000D03*
X126910000Y-59910000D03*
X126910000Y-57370000D03*
X129450000Y-59910000D03*
X129450000Y-57370000D03*
X131990000Y-59910000D03*
X131990000Y-57370000D03*
X134530000Y-59910000D03*
X134530000Y-57370000D03*
X137070000Y-59910000D03*
X137070000Y-57370000D03*
X139610000Y-59910000D03*
X139610000Y-57370000D03*
X142150000Y-59910000D03*
X142150000Y-57370000D03*
M02*
