M48
;DRILL file {KiCad 4.0.4-stable} date 10/12/16 00:19:37
;FORMAT={-:-/ absolute / inch / decimal}
FMAT,2
INCH,TZ
T1C0.016
T2C0.039
T3C0.039
T4C0.040
%
G90
G05
M72
T1
X2.6471Y-2.643
X2.74Y-3.1357
X2.75Y-3.
X2.7734Y-3.6525
X2.8154Y-3.7848
X2.87Y-3.98
X2.88Y-3.2
X2.92Y-4.0467
X2.93Y-3.11
X3.0309Y-3.8421
X3.0391Y-3.801
X3.055Y-3.1125
X3.12Y-2.79
X3.19Y-3.96
X3.23Y-3.7686
X3.24Y-3.45
X3.2963Y-4.0715
X3.33Y-3.96
X3.34Y-3.68
X3.3717Y-3.962
X3.444Y-3.9379
X3.5725Y-3.5225
X3.9996Y-3.5
X4.0138Y-3.3089
X4.03Y-3.25
X4.4468Y-2.6402
X4.5462Y-2.6508
T2
X4.45Y-2.75
T3
X3.9437Y-3.8437
X3.9437Y-4.0563
X4.05Y-3.95
X4.1563Y-3.8437
X4.1563Y-4.0563
T4
X3.0965Y-2.2587
X3.0965Y-2.3587
X3.0965Y-2.4587
X3.0965Y-2.5587
X3.1965Y-2.2587
X3.1965Y-2.3587
X3.1965Y-2.4587
X3.1965Y-2.5587
X3.2965Y-2.2587
X3.2965Y-2.3587
X3.2965Y-2.4587
X3.2965Y-2.5587
X3.3965Y-2.2587
X3.3965Y-2.3587
X3.3965Y-2.4587
X3.3965Y-2.5587
X3.4965Y-2.2587
X3.4965Y-2.3587
X3.4965Y-2.4587
X3.4965Y-2.5587
X3.5965Y-2.2587
X3.5965Y-2.3587
X3.5965Y-2.4587
X3.5965Y-2.5587
X3.6965Y-2.2587
X3.6965Y-2.3587
X3.6965Y-2.4587
X3.6965Y-2.5587
X3.7965Y-2.2587
X3.7965Y-2.3587
X3.7965Y-2.4587
X3.7965Y-2.5587
X3.8965Y-2.2587
X3.8965Y-2.3587
X3.8965Y-2.4587
X3.8965Y-2.5587
X3.9965Y-2.2587
X3.9965Y-2.3587
X3.9965Y-2.4587
X3.9965Y-2.5587
X4.0965Y-2.2587
X4.0965Y-2.3587
X4.0965Y-2.4587
X4.0965Y-2.5587
X4.1965Y-2.2587
X4.1965Y-2.3587
X4.1965Y-2.4587
X4.1965Y-2.5587
X4.2965Y-2.2587
X4.2965Y-2.3587
X4.2965Y-2.4587
X4.2965Y-2.5587
X4.3965Y-2.2587
X4.3965Y-2.3587
X4.3965Y-2.4587
X4.3965Y-2.5587
X4.4965Y-2.2587
X4.4965Y-2.3587
X4.4965Y-2.4587
X4.4965Y-2.5587
X4.5965Y-2.2587
X4.5965Y-2.3587
X4.5965Y-2.4587
X4.5965Y-2.5587
X4.6965Y-2.2587
X4.6965Y-2.3587
X4.6965Y-2.4587
X4.6965Y-2.5587
X4.7965Y-2.2587
X4.7965Y-2.3587
X4.7965Y-2.4587
X4.7965Y-2.5587
X4.8965Y-2.2587
X4.8965Y-2.3587
X4.8965Y-2.4587
X4.8965Y-2.5587
X4.9965Y-2.2587
X4.9965Y-2.3587
X4.9965Y-2.4587
X4.9965Y-2.5587
X5.0965Y-2.2587
X5.0965Y-2.3587
X5.0965Y-2.4587
X5.0965Y-2.5587
X5.1965Y-2.2587
X5.1965Y-2.3587
X5.1965Y-2.4587
X5.1965Y-2.5587
X5.2965Y-2.2587
X5.2965Y-2.3587
X5.2965Y-2.4587
X5.2965Y-2.5587
X5.3965Y-2.2587
X5.3965Y-2.3587
X5.3965Y-2.4587
X5.3965Y-2.5587
X5.4965Y-2.2587
X5.4965Y-2.3587
X5.4965Y-2.4587
X5.4965Y-2.5587
X5.5965Y-2.2587
X5.5965Y-2.3587
X5.5965Y-2.4587
X5.5965Y-2.5587
T0
M30
