M48
;DRILL file {KiCad 4.0.4-stable} date 10/14/16 15:22:47
;FORMAT={-:-/ absolute / metric / decimal}
FMAT,2
METRIC,TZ
T1C0.400
T2C0.600
T3C1.000
T4C1.001
T5C1.016
%
G90
G05
M71
T1
X67.236Y-67.133
X69.596Y-79.646
X69.85Y-76.2
X70.445Y-92.774
X71.511Y-96.134
X72.898Y-101.092
X73.152Y-81.28
X74.168Y-102.786
X74.422Y-78.994
X75.946Y-68.58
X76.986Y-97.59
X77.194Y-96.546
X78.382Y-78.608
X79.248Y-70.866
X81.026Y-100.584
X82.042Y-95.722
X82.296Y-87.63
X83.727Y-103.416
X84.836Y-93.472
X89.615Y-99.189
X90.742Y-89.471
X101.59Y-88.9
X101.951Y-84.047
X102.362Y-82.55
X112.949Y-67.061
X115.474Y-67.33
T2
X84.836Y-100.457
X96.647Y-91.694
T3
X113.03Y-69.85
T4
X100.17Y-97.63
X100.17Y-103.03
X102.87Y-100.33
X105.57Y-97.63
X105.57Y-103.03
T5
X78.65Y-57.37
X78.65Y-59.91
X78.65Y-62.45
X78.65Y-64.99
X81.19Y-57.37
X81.19Y-59.91
X81.19Y-62.45
X81.19Y-64.99
X83.73Y-57.37
X83.73Y-59.91
X83.73Y-62.45
X83.73Y-64.99
X86.27Y-57.37
X86.27Y-59.91
X86.27Y-62.45
X86.27Y-64.99
X88.81Y-57.37
X88.81Y-59.91
X88.81Y-62.45
X88.81Y-64.99
X91.35Y-57.37
X91.35Y-59.91
X91.35Y-62.45
X91.35Y-64.99
X93.89Y-57.37
X93.89Y-59.91
X93.89Y-62.45
X93.89Y-64.99
X96.43Y-57.37
X96.43Y-59.91
X96.43Y-62.45
X96.43Y-64.99
X98.97Y-57.37
X98.97Y-59.91
X98.97Y-62.45
X98.97Y-64.99
X101.51Y-57.37
X101.51Y-59.91
X101.51Y-62.45
X101.51Y-64.99
X104.05Y-57.37
X104.05Y-59.91
X104.05Y-62.45
X104.05Y-64.99
X106.59Y-57.37
X106.59Y-59.91
X106.59Y-62.45
X106.59Y-64.99
X109.13Y-57.37
X109.13Y-59.91
X109.13Y-62.45
X109.13Y-64.99
X111.67Y-57.37
X111.67Y-59.91
X111.67Y-62.45
X111.67Y-64.99
X114.21Y-57.37
X114.21Y-59.91
X114.21Y-62.45
X114.21Y-64.99
X116.75Y-57.37
X116.75Y-59.91
X116.75Y-62.45
X116.75Y-64.99
X119.29Y-57.37
X119.29Y-59.91
X119.29Y-62.45
X119.29Y-64.99
X121.83Y-57.37
X121.83Y-59.91
X121.83Y-62.45
X121.83Y-64.99
X124.37Y-57.37
X124.37Y-59.91
X124.37Y-62.45
X124.37Y-64.99
X126.91Y-57.37
X126.91Y-59.91
X126.91Y-62.45
X126.91Y-64.99
X129.45Y-57.37
X129.45Y-59.91
X129.45Y-62.45
X129.45Y-64.99
X131.99Y-57.37
X131.99Y-59.91
X131.99Y-62.45
X131.99Y-64.99
X134.53Y-57.37
X134.53Y-59.91
X134.53Y-62.45
X134.53Y-64.99
X137.07Y-57.37
X137.07Y-59.91
X137.07Y-62.45
X137.07Y-64.99
X139.61Y-57.37
X139.61Y-59.91
X139.61Y-62.45
X139.61Y-64.99
X142.15Y-57.37
X142.15Y-59.91
X142.15Y-62.45
X142.15Y-64.99
T0
M30
