G04 #@! TF.FileFunction,Legend,Top*
%FSLAX46Y46*%
G04 Gerber Fmt 4.6, Leading zero omitted, Abs format (unit mm)*
G04 Created by KiCad (PCBNEW 4.0.4-stable) date 12/09/16 14:35:44*
%MOMM*%
%LPD*%
G01*
G04 APERTURE LIST*
%ADD10C,0.100000*%
%ADD11C,0.150000*%
%ADD12C,0.381000*%
%ADD13C,0.120000*%
%ADD14C,0.304800*%
G04 APERTURE END LIST*
D10*
D11*
X85182000Y-75850000D02*
X85182000Y-76550000D01*
X83982000Y-76550000D02*
X83982000Y-75850000D01*
D12*
X100972620Y-114780060D02*
X100972620Y-115724940D01*
X106291380Y-114780060D02*
X106291380Y-115724940D01*
X106291380Y-106273600D02*
X106291380Y-110053120D01*
X100972620Y-106273600D02*
X100972620Y-110053120D01*
X106824780Y-114465100D02*
X103365300Y-114780060D01*
X100439220Y-110683040D02*
X106291380Y-110053120D01*
X106824780Y-110683040D02*
X100439220Y-111312960D01*
X106824780Y-111312960D02*
X100439220Y-111942880D01*
X106824780Y-111942880D02*
X100439220Y-112572800D01*
X106824780Y-112572800D02*
X100439220Y-113205260D01*
X106824780Y-113205260D02*
X100439220Y-113835180D01*
X106824780Y-113835180D02*
X100439220Y-114465100D01*
X106824780Y-114465100D02*
X106291380Y-114780060D01*
X106291380Y-114780060D02*
X100972620Y-114780060D01*
X100972620Y-114780060D02*
X100439220Y-114465100D01*
X100439220Y-114465100D02*
X100439220Y-110368080D01*
X100439220Y-110368080D02*
X100972620Y-110053120D01*
X100972620Y-110053120D02*
X106291380Y-110053120D01*
X106291380Y-110053120D02*
X106824780Y-110368080D01*
X106824780Y-110368080D02*
X106824780Y-114465100D01*
X100972620Y-115724940D02*
X106291380Y-115724940D01*
X106781600Y-106273600D02*
X100482400Y-106273600D01*
X100482400Y-106273600D02*
X100482400Y-99974400D01*
X100482400Y-99974400D02*
X106781600Y-99974400D01*
X106781600Y-99974400D02*
X106781600Y-106273600D01*
D11*
X120853905Y-104140000D02*
G75*
G03X120853905Y-104140000I-457905J0D01*
G01*
X116840000Y-105410000D02*
G75*
G03X115570000Y-104140000I-1270000J0D01*
G01*
X115570000Y-104140000D02*
G75*
G03X114300000Y-105410000I0J-1270000D01*
G01*
X109220000Y-105410000D02*
X109220000Y-90170000D01*
X109220000Y-90170000D02*
X121920000Y-90170000D01*
X121920000Y-90170000D02*
X121920000Y-105410000D01*
X121920000Y-105410000D02*
X109220000Y-105410000D01*
X68653000Y-107990000D02*
X68653000Y-112990000D01*
X68653000Y-112990000D02*
X69153000Y-112990000D01*
X69153000Y-112990000D02*
X69153000Y-107990000D01*
X69153000Y-107990000D02*
X68653000Y-107990000D01*
X71853000Y-106290000D02*
X72953000Y-106290000D01*
X72953000Y-106290000D02*
X72953000Y-107940000D01*
X72953000Y-107940000D02*
X72453000Y-107940000D01*
X72453000Y-107940000D02*
X72453000Y-106790000D01*
X72453000Y-106790000D02*
X71853000Y-106790000D01*
X71853000Y-106790000D02*
X71853000Y-106290000D01*
X71853000Y-114690000D02*
X72953000Y-114690000D01*
X72953000Y-114690000D02*
X72953000Y-113040000D01*
X72953000Y-113040000D02*
X72453000Y-113040000D01*
X72453000Y-113040000D02*
X72453000Y-114190000D01*
X72453000Y-114190000D02*
X71853000Y-114190000D01*
X71853000Y-114190000D02*
X71853000Y-114690000D01*
X74803000Y-108615000D02*
X75303000Y-108365000D01*
X75303000Y-108365000D02*
X75303000Y-108865000D01*
X75303000Y-108865000D02*
X74803000Y-108615000D01*
X71303000Y-108365000D02*
X70803000Y-108365000D01*
X70803000Y-108365000D02*
X70803000Y-108865000D01*
X70803000Y-108865000D02*
X71303000Y-108865000D01*
X71303000Y-108865000D02*
X71303000Y-108365000D01*
X71303000Y-109615000D02*
X70803000Y-109615000D01*
X70803000Y-109615000D02*
X70803000Y-110115000D01*
X70803000Y-110115000D02*
X71303000Y-110115000D01*
X71303000Y-110115000D02*
X71303000Y-109615000D01*
X71303000Y-110865000D02*
X70803000Y-110865000D01*
X70803000Y-110865000D02*
X70803000Y-111365000D01*
X70803000Y-111365000D02*
X71303000Y-111365000D01*
X71303000Y-111365000D02*
X71303000Y-110865000D01*
X71303000Y-112115000D02*
X70803000Y-112115000D01*
X70803000Y-112115000D02*
X70803000Y-112615000D01*
X70803000Y-112615000D02*
X71303000Y-112615000D01*
X71303000Y-112615000D02*
X71303000Y-112115000D01*
D13*
X100815881Y-71241749D02*
X100815881Y-72501749D01*
X100815881Y-78061749D02*
X100815881Y-76801749D01*
X104575881Y-71241749D02*
X100815881Y-71241749D01*
X106825881Y-78061749D02*
X100815881Y-78061749D01*
D11*
X101050197Y-69992629D02*
X100050197Y-69992629D01*
X100050197Y-68642629D02*
X101050197Y-68642629D01*
X75784000Y-101687000D02*
X76784000Y-101687000D01*
X76784000Y-103037000D02*
X75784000Y-103037000D01*
X102286000Y-80506000D02*
X104986000Y-80506000D01*
X102286000Y-79006000D02*
X104986000Y-79006000D01*
X103786000Y-79906000D02*
X103786000Y-79656000D01*
X103786000Y-79656000D02*
X103636000Y-79806000D01*
X103536000Y-79406000D02*
X103536000Y-80106000D01*
X103886000Y-79756000D02*
X104236000Y-79756000D01*
X103536000Y-79756000D02*
X103886000Y-79406000D01*
X103886000Y-79406000D02*
X103886000Y-80106000D01*
X103886000Y-80106000D02*
X103536000Y-79756000D01*
X103268197Y-70067629D02*
X105968197Y-70067629D01*
X103268197Y-68567629D02*
X105968197Y-68567629D01*
X104768197Y-69467629D02*
X104768197Y-69217629D01*
X104768197Y-69217629D02*
X104618197Y-69367629D01*
X104518197Y-68967629D02*
X104518197Y-69667629D01*
X104868197Y-69317629D02*
X105218197Y-69317629D01*
X104518197Y-69317629D02*
X104868197Y-68967629D01*
X104868197Y-68967629D02*
X104868197Y-69667629D01*
X104868197Y-69667629D02*
X104518197Y-69317629D01*
X74600000Y-101080000D02*
X77300000Y-101080000D01*
X74600000Y-99580000D02*
X77300000Y-99580000D01*
X76100000Y-100480000D02*
X76100000Y-100230000D01*
X76100000Y-100230000D02*
X75950000Y-100380000D01*
X75850000Y-99980000D02*
X75850000Y-100680000D01*
X76200000Y-100330000D02*
X76550000Y-100330000D01*
X75850000Y-100330000D02*
X76200000Y-99980000D01*
X76200000Y-99980000D02*
X76200000Y-100680000D01*
X76200000Y-100680000D02*
X75850000Y-100330000D01*
X124575000Y-85420000D02*
X124575000Y-82720000D01*
X123075000Y-85420000D02*
X123075000Y-82720000D01*
X123975000Y-83920000D02*
X123725000Y-83920000D01*
X123725000Y-83920000D02*
X123875000Y-84070000D01*
X123475000Y-84170000D02*
X124175000Y-84170000D01*
X123825000Y-83820000D02*
X123825000Y-83470000D01*
X123825000Y-84170000D02*
X123475000Y-83820000D01*
X123475000Y-83820000D02*
X124175000Y-83820000D01*
X124175000Y-83820000D02*
X123825000Y-84170000D01*
X100322000Y-80365637D02*
X99322000Y-80365637D01*
X99322000Y-79015637D02*
X100322000Y-79015637D01*
X71890000Y-68921000D02*
X72890000Y-68921000D01*
X72890000Y-70271000D02*
X71890000Y-70271000D01*
X80272000Y-68921000D02*
X81272000Y-68921000D01*
X81272000Y-70271000D02*
X80272000Y-70271000D01*
X123150000Y-88130000D02*
X123150000Y-87130000D01*
X124500000Y-87130000D02*
X124500000Y-88130000D01*
X69415000Y-89545000D02*
X69415000Y-97045000D01*
X69415000Y-97045000D02*
X69915000Y-97045000D01*
X69915000Y-97045000D02*
X69915000Y-89545000D01*
X69915000Y-89545000D02*
X69415000Y-89545000D01*
X72615000Y-87845000D02*
X73715000Y-87845000D01*
X73715000Y-87845000D02*
X73715000Y-89495000D01*
X73715000Y-89495000D02*
X73215000Y-89495000D01*
X73215000Y-89495000D02*
X73215000Y-88345000D01*
X73215000Y-88345000D02*
X72615000Y-88345000D01*
X72615000Y-88345000D02*
X72615000Y-87845000D01*
X72615000Y-98745000D02*
X73715000Y-98745000D01*
X73715000Y-98745000D02*
X73715000Y-97095000D01*
X73715000Y-97095000D02*
X73215000Y-97095000D01*
X73215000Y-97095000D02*
X73215000Y-98245000D01*
X73215000Y-98245000D02*
X72615000Y-98245000D01*
X72615000Y-98245000D02*
X72615000Y-98745000D01*
X75565000Y-90170000D02*
X76065000Y-89920000D01*
X76065000Y-89920000D02*
X76065000Y-90420000D01*
X76065000Y-90420000D02*
X75565000Y-90170000D01*
X72065000Y-89920000D02*
X71565000Y-89920000D01*
X71565000Y-89920000D02*
X71565000Y-90420000D01*
X71565000Y-90420000D02*
X72065000Y-90420000D01*
X72065000Y-90420000D02*
X72065000Y-89920000D01*
X72065000Y-91170000D02*
X71565000Y-91170000D01*
X71565000Y-91170000D02*
X71565000Y-91670000D01*
X71565000Y-91670000D02*
X72065000Y-91670000D01*
X72065000Y-91670000D02*
X72065000Y-91170000D01*
X72065000Y-92420000D02*
X71565000Y-92420000D01*
X71565000Y-92420000D02*
X71565000Y-92920000D01*
X71565000Y-92920000D02*
X72065000Y-92920000D01*
X72065000Y-92920000D02*
X72065000Y-92420000D01*
X72065000Y-93670000D02*
X71565000Y-93670000D01*
X71565000Y-93670000D02*
X71565000Y-94170000D01*
X71565000Y-94170000D02*
X72065000Y-94170000D01*
X72065000Y-94170000D02*
X72065000Y-93670000D01*
X72065000Y-94920000D02*
X71565000Y-94920000D01*
X71565000Y-94920000D02*
X71565000Y-95420000D01*
X71565000Y-95420000D02*
X72065000Y-95420000D01*
X72065000Y-95420000D02*
X72065000Y-94920000D01*
X72065000Y-96170000D02*
X71565000Y-96170000D01*
X71565000Y-96170000D02*
X71565000Y-96670000D01*
X71565000Y-96670000D02*
X72065000Y-96670000D01*
X72065000Y-96670000D02*
X72065000Y-96170000D01*
X70485000Y-75438000D02*
G75*
G03X70485000Y-75438000I-127000J0D01*
G01*
X69723000Y-76073000D02*
X74803000Y-76073000D01*
X69723000Y-72771000D02*
X74803000Y-72771000D01*
X69723000Y-76581000D02*
X74803000Y-76581000D01*
X69723000Y-76581000D02*
X69723000Y-72771000D01*
X74803000Y-76581000D02*
X74803000Y-72771000D01*
X78994000Y-75438000D02*
G75*
G03X78994000Y-75438000I-127000J0D01*
G01*
X78232000Y-76073000D02*
X83312000Y-76073000D01*
X78232000Y-72771000D02*
X83312000Y-72771000D01*
X78232000Y-76581000D02*
X83312000Y-76581000D01*
X78232000Y-76581000D02*
X78232000Y-72771000D01*
X83312000Y-76581000D02*
X83312000Y-72771000D01*
D13*
X118980000Y-82291000D02*
X117720000Y-82291000D01*
X112160000Y-82291000D02*
X113420000Y-82291000D01*
X118980000Y-86051000D02*
X118980000Y-82291000D01*
X112160000Y-88301000D02*
X112160000Y-82291000D01*
D11*
X106130822Y-82742596D02*
G75*
G03X106130822Y-82742596I-127000J0D01*
G01*
X105368822Y-82107596D02*
X105368822Y-87187596D01*
X108670822Y-82107596D02*
X108670822Y-87187596D01*
X104860822Y-82107596D02*
X104860822Y-87187596D01*
X104860822Y-82107596D02*
X108670822Y-82107596D01*
X104860822Y-87187596D02*
X108670822Y-87187596D01*
X105910000Y-89575000D02*
X104910000Y-89575000D01*
X104910000Y-88225000D02*
X105910000Y-88225000D01*
X77380000Y-56100000D02*
X143420000Y-56100000D01*
X143420000Y-61180000D02*
X79920000Y-61180000D01*
X143420000Y-56100000D02*
X143420000Y-61180000D01*
X77380000Y-56100000D02*
X77380000Y-58640000D01*
X77100000Y-59910000D02*
X77100000Y-61460000D01*
X77380000Y-58640000D02*
X79920000Y-58640000D01*
X79920000Y-58640000D02*
X79920000Y-61180000D01*
X77100000Y-61460000D02*
X78650000Y-61460000D01*
X80195000Y-90425000D02*
X80195000Y-90650000D01*
X87445000Y-90425000D02*
X87445000Y-90750000D01*
X87445000Y-97675000D02*
X87445000Y-97350000D01*
X80195000Y-97675000D02*
X80195000Y-97350000D01*
X80195000Y-90425000D02*
X80520000Y-90425000D01*
X80195000Y-97675000D02*
X80520000Y-97675000D01*
X87445000Y-97675000D02*
X87120000Y-97675000D01*
X87445000Y-90425000D02*
X87120000Y-90425000D01*
X80195000Y-90650000D02*
X78770000Y-90650000D01*
X74017000Y-81129000D02*
X74017000Y-81354000D01*
X77367000Y-81129000D02*
X77367000Y-81429000D01*
X77367000Y-84479000D02*
X77367000Y-84179000D01*
X74017000Y-84479000D02*
X74017000Y-84179000D01*
X74017000Y-81129000D02*
X77367000Y-81129000D01*
X74017000Y-84479000D02*
X77367000Y-84479000D01*
X74017000Y-81354000D02*
X72792000Y-81354000D01*
X77380000Y-61180000D02*
X143420000Y-61180000D01*
X143420000Y-66260000D02*
X79920000Y-66260000D01*
X143420000Y-61180000D02*
X143420000Y-66260000D01*
X77380000Y-61180000D02*
X77380000Y-63720000D01*
X77100000Y-64990000D02*
X77100000Y-66540000D01*
X77380000Y-63720000D02*
X79920000Y-63720000D01*
X79920000Y-63720000D02*
X79920000Y-66260000D01*
X77100000Y-66540000D02*
X78650000Y-66540000D01*
X76546000Y-76104000D02*
X76546000Y-76804000D01*
X75346000Y-76804000D02*
X75346000Y-76104000D01*
X121885000Y-84740000D02*
X121885000Y-85440000D01*
X120685000Y-85440000D02*
X120685000Y-84740000D01*
X91475000Y-95600000D02*
X91475000Y-94900000D01*
X92675000Y-94900000D02*
X92675000Y-95600000D01*
X108804000Y-75342000D02*
X108804000Y-76042000D01*
X107604000Y-76042000D02*
X107604000Y-75342000D01*
X104552000Y-97444000D02*
X105252000Y-97444000D01*
X105252000Y-98644000D02*
X104552000Y-98644000D01*
X86839143Y-76366666D02*
X86886762Y-76414285D01*
X86934381Y-76557142D01*
X86934381Y-76652380D01*
X86886762Y-76795238D01*
X86791524Y-76890476D01*
X86696286Y-76938095D01*
X86505810Y-76985714D01*
X86362952Y-76985714D01*
X86172476Y-76938095D01*
X86077238Y-76890476D01*
X85982000Y-76795238D01*
X85934381Y-76652380D01*
X85934381Y-76557142D01*
X85982000Y-76414285D01*
X86029619Y-76366666D01*
X86267714Y-75509523D02*
X86934381Y-75509523D01*
X85886762Y-75747619D02*
X86601048Y-75985714D01*
X86601048Y-75366666D01*
D14*
X103124000Y-97209429D02*
X103124000Y-98298000D01*
X103051428Y-98515714D01*
X102906285Y-98660857D01*
X102688571Y-98733429D01*
X102543428Y-98733429D01*
X104648000Y-98733429D02*
X103777143Y-98733429D01*
X104212571Y-98733429D02*
X104212571Y-97209429D01*
X104067428Y-97427143D01*
X103922286Y-97572286D01*
X103777143Y-97644857D01*
X100402572Y-96120857D02*
X100620286Y-96193429D01*
X100983143Y-96193429D01*
X101128286Y-96120857D01*
X101200857Y-96048286D01*
X101273429Y-95903143D01*
X101273429Y-95758000D01*
X101200857Y-95612857D01*
X101128286Y-95540286D01*
X100983143Y-95467714D01*
X100692857Y-95395143D01*
X100547715Y-95322571D01*
X100475143Y-95250000D01*
X100402572Y-95104857D01*
X100402572Y-94959714D01*
X100475143Y-94814571D01*
X100547715Y-94742000D01*
X100692857Y-94669429D01*
X101055715Y-94669429D01*
X101273429Y-94742000D01*
X101926572Y-96193429D02*
X101926572Y-94669429D01*
X102434572Y-95758000D01*
X102942572Y-94669429D01*
X102942572Y-96193429D01*
X103595715Y-95758000D02*
X104321429Y-95758000D01*
X103450572Y-96193429D02*
X103958572Y-94669429D01*
X104466572Y-96193429D01*
D11*
X118062381Y-97281905D02*
X118871905Y-97281905D01*
X118967143Y-97234286D01*
X119014762Y-97186667D01*
X119062381Y-97091429D01*
X119062381Y-96900952D01*
X119014762Y-96805714D01*
X118967143Y-96758095D01*
X118871905Y-96710476D01*
X118062381Y-96710476D01*
X118062381Y-96329524D02*
X118062381Y-95710476D01*
X118443333Y-96043810D01*
X118443333Y-95900952D01*
X118490952Y-95805714D01*
X118538571Y-95758095D01*
X118633810Y-95710476D01*
X118871905Y-95710476D01*
X118967143Y-95758095D01*
X119014762Y-95805714D01*
X119062381Y-95900952D01*
X119062381Y-96186667D01*
X119014762Y-96281905D01*
X118967143Y-96329524D01*
X76505381Y-111228095D02*
X75505381Y-111228095D01*
X75505381Y-110847142D01*
X75553000Y-110751904D01*
X75600619Y-110704285D01*
X75695857Y-110656666D01*
X75838714Y-110656666D01*
X75933952Y-110704285D01*
X75981571Y-110751904D01*
X76029190Y-110847142D01*
X76029190Y-111228095D01*
X75600619Y-110275714D02*
X75553000Y-110228095D01*
X75505381Y-110132857D01*
X75505381Y-109894761D01*
X75553000Y-109799523D01*
X75600619Y-109751904D01*
X75695857Y-109704285D01*
X75791095Y-109704285D01*
X75933952Y-109751904D01*
X76505381Y-110323333D01*
X76505381Y-109704285D01*
X101963976Y-78604130D02*
X101963976Y-79413654D01*
X102011595Y-79508892D01*
X102059214Y-79556511D01*
X102154452Y-79604130D01*
X102344929Y-79604130D01*
X102440167Y-79556511D01*
X102487786Y-79508892D01*
X102535405Y-79413654D01*
X102535405Y-78604130D01*
X102916357Y-78604130D02*
X103583024Y-78604130D01*
X103154452Y-79604130D01*
X100383531Y-67870010D02*
X100050197Y-67393819D01*
X99812102Y-67870010D02*
X99812102Y-66870010D01*
X100193055Y-66870010D01*
X100288293Y-66917629D01*
X100335912Y-66965248D01*
X100383531Y-67060486D01*
X100383531Y-67203343D01*
X100335912Y-67298581D01*
X100288293Y-67346200D01*
X100193055Y-67393819D01*
X99812102Y-67393819D01*
X101240674Y-67203343D02*
X101240674Y-67870010D01*
X101002578Y-66822391D02*
X100764483Y-67536677D01*
X101383531Y-67536677D01*
X76117334Y-104714381D02*
X75784000Y-104238190D01*
X75545905Y-104714381D02*
X75545905Y-103714381D01*
X75926858Y-103714381D01*
X76022096Y-103762000D01*
X76069715Y-103809619D01*
X76117334Y-103904857D01*
X76117334Y-104047714D01*
X76069715Y-104142952D01*
X76022096Y-104190571D01*
X75926858Y-104238190D01*
X75545905Y-104238190D01*
X76450667Y-103714381D02*
X77069715Y-103714381D01*
X76736381Y-104095333D01*
X76879239Y-104095333D01*
X76974477Y-104142952D01*
X77022096Y-104190571D01*
X77069715Y-104285810D01*
X77069715Y-104523905D01*
X77022096Y-104619143D01*
X76974477Y-104666762D01*
X76879239Y-104714381D01*
X76593524Y-104714381D01*
X76498286Y-104666762D01*
X76450667Y-104619143D01*
X103147905Y-78458381D02*
X103147905Y-77458381D01*
X103386000Y-77458381D01*
X103528858Y-77506000D01*
X103624096Y-77601238D01*
X103671715Y-77696476D01*
X103719334Y-77886952D01*
X103719334Y-78029810D01*
X103671715Y-78220286D01*
X103624096Y-78315524D01*
X103528858Y-78410762D01*
X103386000Y-78458381D01*
X103147905Y-78458381D01*
X104576477Y-77791714D02*
X104576477Y-78458381D01*
X104338381Y-77410762D02*
X104100286Y-78125048D01*
X104719334Y-78125048D01*
X104130102Y-68020010D02*
X104130102Y-67020010D01*
X104368197Y-67020010D01*
X104511055Y-67067629D01*
X104606293Y-67162867D01*
X104653912Y-67258105D01*
X104701531Y-67448581D01*
X104701531Y-67591439D01*
X104653912Y-67781915D01*
X104606293Y-67877153D01*
X104511055Y-67972391D01*
X104368197Y-68020010D01*
X104130102Y-68020010D01*
X105034864Y-67020010D02*
X105653912Y-67020010D01*
X105320578Y-67400962D01*
X105463436Y-67400962D01*
X105558674Y-67448581D01*
X105606293Y-67496200D01*
X105653912Y-67591439D01*
X105653912Y-67829534D01*
X105606293Y-67924772D01*
X105558674Y-67972391D01*
X105463436Y-68020010D01*
X105177721Y-68020010D01*
X105082483Y-67972391D01*
X105034864Y-67924772D01*
X75461905Y-99032381D02*
X75461905Y-98032381D01*
X75700000Y-98032381D01*
X75842858Y-98080000D01*
X75938096Y-98175238D01*
X75985715Y-98270476D01*
X76033334Y-98460952D01*
X76033334Y-98603810D01*
X75985715Y-98794286D01*
X75938096Y-98889524D01*
X75842858Y-98984762D01*
X75700000Y-99032381D01*
X75461905Y-99032381D01*
X76414286Y-98127619D02*
X76461905Y-98080000D01*
X76557143Y-98032381D01*
X76795239Y-98032381D01*
X76890477Y-98080000D01*
X76938096Y-98127619D01*
X76985715Y-98222857D01*
X76985715Y-98318095D01*
X76938096Y-98460952D01*
X76366667Y-99032381D01*
X76985715Y-99032381D01*
X122527381Y-84558095D02*
X121527381Y-84558095D01*
X121527381Y-84320000D01*
X121575000Y-84177142D01*
X121670238Y-84081904D01*
X121765476Y-84034285D01*
X121955952Y-83986666D01*
X122098810Y-83986666D01*
X122289286Y-84034285D01*
X122384524Y-84081904D01*
X122479762Y-84177142D01*
X122527381Y-84320000D01*
X122527381Y-84558095D01*
X122527381Y-83034285D02*
X122527381Y-83605714D01*
X122527381Y-83320000D02*
X121527381Y-83320000D01*
X121670238Y-83415238D01*
X121765476Y-83510476D01*
X121813095Y-83605714D01*
X99655334Y-78243018D02*
X99322000Y-77766827D01*
X99083905Y-78243018D02*
X99083905Y-77243018D01*
X99464858Y-77243018D01*
X99560096Y-77290637D01*
X99607715Y-77338256D01*
X99655334Y-77433494D01*
X99655334Y-77576351D01*
X99607715Y-77671589D01*
X99560096Y-77719208D01*
X99464858Y-77766827D01*
X99083905Y-77766827D01*
X99988667Y-77243018D02*
X100655334Y-77243018D01*
X100226762Y-78243018D01*
X72223334Y-71948381D02*
X71890000Y-71472190D01*
X71651905Y-71948381D02*
X71651905Y-70948381D01*
X72032858Y-70948381D01*
X72128096Y-70996000D01*
X72175715Y-71043619D01*
X72223334Y-71138857D01*
X72223334Y-71281714D01*
X72175715Y-71376952D01*
X72128096Y-71424571D01*
X72032858Y-71472190D01*
X71651905Y-71472190D01*
X73080477Y-70948381D02*
X72890000Y-70948381D01*
X72794762Y-70996000D01*
X72747143Y-71043619D01*
X72651905Y-71186476D01*
X72604286Y-71376952D01*
X72604286Y-71757905D01*
X72651905Y-71853143D01*
X72699524Y-71900762D01*
X72794762Y-71948381D01*
X72985239Y-71948381D01*
X73080477Y-71900762D01*
X73128096Y-71853143D01*
X73175715Y-71757905D01*
X73175715Y-71519810D01*
X73128096Y-71424571D01*
X73080477Y-71376952D01*
X72985239Y-71329333D01*
X72794762Y-71329333D01*
X72699524Y-71376952D01*
X72651905Y-71424571D01*
X72604286Y-71519810D01*
X80605334Y-71948381D02*
X80272000Y-71472190D01*
X80033905Y-71948381D02*
X80033905Y-70948381D01*
X80414858Y-70948381D01*
X80510096Y-70996000D01*
X80557715Y-71043619D01*
X80605334Y-71138857D01*
X80605334Y-71281714D01*
X80557715Y-71376952D01*
X80510096Y-71424571D01*
X80414858Y-71472190D01*
X80033905Y-71472190D01*
X81510096Y-70948381D02*
X81033905Y-70948381D01*
X80986286Y-71424571D01*
X81033905Y-71376952D01*
X81129143Y-71329333D01*
X81367239Y-71329333D01*
X81462477Y-71376952D01*
X81510096Y-71424571D01*
X81557715Y-71519810D01*
X81557715Y-71757905D01*
X81510096Y-71853143D01*
X81462477Y-71900762D01*
X81367239Y-71948381D01*
X81129143Y-71948381D01*
X81033905Y-71900762D01*
X80986286Y-71853143D01*
X126177381Y-87796666D02*
X125701190Y-88130000D01*
X126177381Y-88368095D02*
X125177381Y-88368095D01*
X125177381Y-87987142D01*
X125225000Y-87891904D01*
X125272619Y-87844285D01*
X125367857Y-87796666D01*
X125510714Y-87796666D01*
X125605952Y-87844285D01*
X125653571Y-87891904D01*
X125701190Y-87987142D01*
X125701190Y-88368095D01*
X125272619Y-87415714D02*
X125225000Y-87368095D01*
X125177381Y-87272857D01*
X125177381Y-87034761D01*
X125225000Y-86939523D01*
X125272619Y-86891904D01*
X125367857Y-86844285D01*
X125463095Y-86844285D01*
X125605952Y-86891904D01*
X126177381Y-87463333D01*
X126177381Y-86844285D01*
X77267381Y-94747381D02*
X76267381Y-94747381D01*
X77219762Y-94318810D02*
X77267381Y-94175953D01*
X77267381Y-93937857D01*
X77219762Y-93842619D01*
X77172143Y-93795000D01*
X77076905Y-93747381D01*
X76981667Y-93747381D01*
X76886429Y-93795000D01*
X76838810Y-93842619D01*
X76791190Y-93937857D01*
X76743571Y-94128334D01*
X76695952Y-94223572D01*
X76648333Y-94271191D01*
X76553095Y-94318810D01*
X76457857Y-94318810D01*
X76362619Y-94271191D01*
X76315000Y-94223572D01*
X76267381Y-94128334D01*
X76267381Y-93890238D01*
X76315000Y-93747381D01*
X77267381Y-93318810D02*
X76267381Y-93318810D01*
X76267381Y-92937857D01*
X76315000Y-92842619D01*
X76362619Y-92795000D01*
X76457857Y-92747381D01*
X76600714Y-92747381D01*
X76695952Y-92795000D01*
X76743571Y-92842619D01*
X76791190Y-92937857D01*
X76791190Y-93318810D01*
X77267381Y-91795000D02*
X77267381Y-92366429D01*
X77267381Y-92080715D02*
X76267381Y-92080715D01*
X76410238Y-92175953D01*
X76505476Y-92271191D01*
X76553095Y-92366429D01*
X71501095Y-74128381D02*
X71501095Y-74937905D01*
X71548714Y-75033143D01*
X71596333Y-75080762D01*
X71691571Y-75128381D01*
X71882048Y-75128381D01*
X71977286Y-75080762D01*
X72024905Y-75033143D01*
X72072524Y-74937905D01*
X72072524Y-74128381D01*
X72977286Y-74128381D02*
X72786809Y-74128381D01*
X72691571Y-74176000D01*
X72643952Y-74223619D01*
X72548714Y-74366476D01*
X72501095Y-74556952D01*
X72501095Y-74937905D01*
X72548714Y-75033143D01*
X72596333Y-75080762D01*
X72691571Y-75128381D01*
X72882048Y-75128381D01*
X72977286Y-75080762D01*
X73024905Y-75033143D01*
X73072524Y-74937905D01*
X73072524Y-74699810D01*
X73024905Y-74604571D01*
X72977286Y-74556952D01*
X72882048Y-74509333D01*
X72691571Y-74509333D01*
X72596333Y-74556952D01*
X72548714Y-74604571D01*
X72501095Y-74699810D01*
X80010095Y-74128381D02*
X80010095Y-74937905D01*
X80057714Y-75033143D01*
X80105333Y-75080762D01*
X80200571Y-75128381D01*
X80391048Y-75128381D01*
X80486286Y-75080762D01*
X80533905Y-75033143D01*
X80581524Y-74937905D01*
X80581524Y-74128381D01*
X81533905Y-74128381D02*
X81057714Y-74128381D01*
X81010095Y-74604571D01*
X81057714Y-74556952D01*
X81152952Y-74509333D01*
X81391048Y-74509333D01*
X81486286Y-74556952D01*
X81533905Y-74604571D01*
X81581524Y-74699810D01*
X81581524Y-74937905D01*
X81533905Y-75033143D01*
X81486286Y-75080762D01*
X81391048Y-75128381D01*
X81152952Y-75128381D01*
X81057714Y-75080762D01*
X81010095Y-75033143D01*
X110522381Y-84962905D02*
X111331905Y-84962905D01*
X111427143Y-84915286D01*
X111474762Y-84867667D01*
X111522381Y-84772429D01*
X111522381Y-84581952D01*
X111474762Y-84486714D01*
X111427143Y-84439095D01*
X111331905Y-84391476D01*
X110522381Y-84391476D01*
X110617619Y-83962905D02*
X110570000Y-83915286D01*
X110522381Y-83820048D01*
X110522381Y-83581952D01*
X110570000Y-83486714D01*
X110617619Y-83439095D01*
X110712857Y-83391476D01*
X110808095Y-83391476D01*
X110950952Y-83439095D01*
X111522381Y-84010524D01*
X111522381Y-83391476D01*
X106218203Y-85409501D02*
X107027727Y-85409501D01*
X107122965Y-85361882D01*
X107170584Y-85314263D01*
X107218203Y-85219025D01*
X107218203Y-85028548D01*
X107170584Y-84933310D01*
X107122965Y-84885691D01*
X107027727Y-84838072D01*
X106218203Y-84838072D01*
X107218203Y-83838072D02*
X107218203Y-84409501D01*
X107218203Y-84123787D02*
X106218203Y-84123787D01*
X106361060Y-84219025D01*
X106456298Y-84314263D01*
X106503917Y-84409501D01*
X105243334Y-87452381D02*
X104910000Y-86976190D01*
X104671905Y-87452381D02*
X104671905Y-86452381D01*
X105052858Y-86452381D01*
X105148096Y-86500000D01*
X105195715Y-86547619D01*
X105243334Y-86642857D01*
X105243334Y-86785714D01*
X105195715Y-86880952D01*
X105148096Y-86928571D01*
X105052858Y-86976190D01*
X104671905Y-86976190D01*
X106195715Y-87452381D02*
X105624286Y-87452381D01*
X105910000Y-87452381D02*
X105910000Y-86452381D01*
X105814762Y-86595238D01*
X105719524Y-86690476D01*
X105624286Y-86738095D01*
X74002381Y-60671905D02*
X73002381Y-60671905D01*
X73478571Y-60671905D02*
X73478571Y-60100476D01*
X74002381Y-60100476D02*
X73002381Y-60100476D01*
X73097619Y-59671905D02*
X73050000Y-59624286D01*
X73002381Y-59529048D01*
X73002381Y-59290952D01*
X73050000Y-59195714D01*
X73097619Y-59148095D01*
X73192857Y-59100476D01*
X73288095Y-59100476D01*
X73430952Y-59148095D01*
X74002381Y-59719524D01*
X74002381Y-59100476D01*
X82843810Y-88452381D02*
X82843810Y-87452381D01*
X83891429Y-88357143D02*
X83843810Y-88404762D01*
X83700953Y-88452381D01*
X83605715Y-88452381D01*
X83462857Y-88404762D01*
X83367619Y-88309524D01*
X83320000Y-88214286D01*
X83272381Y-88023810D01*
X83272381Y-87880952D01*
X83320000Y-87690476D01*
X83367619Y-87595238D01*
X83462857Y-87500000D01*
X83605715Y-87452381D01*
X83700953Y-87452381D01*
X83843810Y-87500000D01*
X83891429Y-87547619D01*
X84843810Y-88452381D02*
X84272381Y-88452381D01*
X84558095Y-88452381D02*
X84558095Y-87452381D01*
X84462857Y-87595238D01*
X84367619Y-87690476D01*
X84272381Y-87738095D01*
X74930095Y-79656381D02*
X74930095Y-80465905D01*
X74977714Y-80561143D01*
X75025333Y-80608762D01*
X75120571Y-80656381D01*
X75311048Y-80656381D01*
X75406286Y-80608762D01*
X75453905Y-80561143D01*
X75501524Y-80465905D01*
X75501524Y-79656381D01*
X76406286Y-79989714D02*
X76406286Y-80656381D01*
X76168190Y-79608762D02*
X75930095Y-80323048D01*
X76549143Y-80323048D01*
X74002381Y-65751905D02*
X73002381Y-65751905D01*
X73478571Y-65751905D02*
X73478571Y-65180476D01*
X74002381Y-65180476D02*
X73002381Y-65180476D01*
X74002381Y-64180476D02*
X74002381Y-64751905D01*
X74002381Y-64466191D02*
X73002381Y-64466191D01*
X73145238Y-64561429D01*
X73240476Y-64656667D01*
X73288095Y-64751905D01*
X78203143Y-76620666D02*
X78250762Y-76668285D01*
X78298381Y-76811142D01*
X78298381Y-76906380D01*
X78250762Y-77049238D01*
X78155524Y-77144476D01*
X78060286Y-77192095D01*
X77869810Y-77239714D01*
X77726952Y-77239714D01*
X77536476Y-77192095D01*
X77441238Y-77144476D01*
X77346000Y-77049238D01*
X77298381Y-76906380D01*
X77298381Y-76811142D01*
X77346000Y-76668285D01*
X77393619Y-76620666D01*
X77298381Y-75715904D02*
X77298381Y-76192095D01*
X77774571Y-76239714D01*
X77726952Y-76192095D01*
X77679333Y-76096857D01*
X77679333Y-75858761D01*
X77726952Y-75763523D01*
X77774571Y-75715904D01*
X77869810Y-75668285D01*
X78107905Y-75668285D01*
X78203143Y-75715904D01*
X78250762Y-75763523D01*
X78298381Y-75858761D01*
X78298381Y-76096857D01*
X78250762Y-76192095D01*
X78203143Y-76239714D01*
X123542143Y-85256666D02*
X123589762Y-85304285D01*
X123637381Y-85447142D01*
X123637381Y-85542380D01*
X123589762Y-85685238D01*
X123494524Y-85780476D01*
X123399286Y-85828095D01*
X123208810Y-85875714D01*
X123065952Y-85875714D01*
X122875476Y-85828095D01*
X122780238Y-85780476D01*
X122685000Y-85685238D01*
X122637381Y-85542380D01*
X122637381Y-85447142D01*
X122685000Y-85304285D01*
X122732619Y-85256666D01*
X123637381Y-84304285D02*
X123637381Y-84875714D01*
X123637381Y-84590000D02*
X122637381Y-84590000D01*
X122780238Y-84685238D01*
X122875476Y-84780476D01*
X122923095Y-84875714D01*
X90532143Y-95416666D02*
X90579762Y-95464285D01*
X90627381Y-95607142D01*
X90627381Y-95702380D01*
X90579762Y-95845238D01*
X90484524Y-95940476D01*
X90389286Y-95988095D01*
X90198810Y-96035714D01*
X90055952Y-96035714D01*
X89865476Y-95988095D01*
X89770238Y-95940476D01*
X89675000Y-95845238D01*
X89627381Y-95702380D01*
X89627381Y-95607142D01*
X89675000Y-95464285D01*
X89722619Y-95416666D01*
X89722619Y-95035714D02*
X89675000Y-94988095D01*
X89627381Y-94892857D01*
X89627381Y-94654761D01*
X89675000Y-94559523D01*
X89722619Y-94511904D01*
X89817857Y-94464285D01*
X89913095Y-94464285D01*
X90055952Y-94511904D01*
X90627381Y-95083333D01*
X90627381Y-94464285D01*
X110461143Y-75858666D02*
X110508762Y-75906285D01*
X110556381Y-76049142D01*
X110556381Y-76144380D01*
X110508762Y-76287238D01*
X110413524Y-76382476D01*
X110318286Y-76430095D01*
X110127810Y-76477714D01*
X109984952Y-76477714D01*
X109794476Y-76430095D01*
X109699238Y-76382476D01*
X109604000Y-76287238D01*
X109556381Y-76144380D01*
X109556381Y-76049142D01*
X109604000Y-75906285D01*
X109651619Y-75858666D01*
X109556381Y-75525333D02*
X109556381Y-74906285D01*
X109937333Y-75239619D01*
X109937333Y-75096761D01*
X109984952Y-75001523D01*
X110032571Y-74953904D01*
X110127810Y-74906285D01*
X110365905Y-74906285D01*
X110461143Y-74953904D01*
X110508762Y-75001523D01*
X110556381Y-75096761D01*
X110556381Y-75382476D01*
X110508762Y-75477714D01*
X110461143Y-75525333D01*
X104735334Y-96596381D02*
X104259143Y-96596381D01*
X104259143Y-95596381D01*
X105592477Y-96596381D02*
X105021048Y-96596381D01*
X105306762Y-96596381D02*
X105306762Y-95596381D01*
X105211524Y-95739238D01*
X105116286Y-95834476D01*
X105021048Y-95882095D01*
M02*
