G04 #@! TF.FileFunction,Legend,Top*
%FSLAX46Y46*%
G04 Gerber Fmt 4.6, Leading zero omitted, Abs format (unit mm)*
G04 Created by KiCad (PCBNEW 4.0.4-stable) date 10/12/16 00:19:34*
%MOMM*%
%LPD*%
G01*
G04 APERTURE LIST*
%ADD10C,0.100000*%
%ADD11C,0.150000*%
%ADD12C,0.381000*%
%ADD13C,0.304800*%
G04 APERTURE END LIST*
D10*
D11*
X77380000Y-61180000D02*
X143420000Y-61180000D01*
X143420000Y-66260000D02*
X79920000Y-66260000D01*
X143420000Y-61180000D02*
X143420000Y-66260000D01*
X77380000Y-61180000D02*
X77380000Y-63720000D01*
X77100000Y-64990000D02*
X77100000Y-66540000D01*
X77380000Y-63720000D02*
X79920000Y-63720000D01*
X79920000Y-63720000D02*
X79920000Y-66260000D01*
X77100000Y-66540000D02*
X78650000Y-66540000D01*
X71985000Y-78335000D02*
X71985000Y-78560000D01*
X75335000Y-78335000D02*
X75335000Y-78635000D01*
X75335000Y-81685000D02*
X75335000Y-81385000D01*
X71985000Y-81685000D02*
X71985000Y-81385000D01*
X71985000Y-78335000D02*
X75335000Y-78335000D01*
X71985000Y-81685000D02*
X75335000Y-81685000D01*
X71985000Y-78560000D02*
X70760000Y-78560000D01*
D12*
X100210620Y-111986060D02*
X100210620Y-112930940D01*
X105529380Y-111986060D02*
X105529380Y-112930940D01*
X105529380Y-103479600D02*
X105529380Y-107259120D01*
X100210620Y-103479600D02*
X100210620Y-107259120D01*
X106062780Y-111671100D02*
X102603300Y-111986060D01*
X99677220Y-107889040D02*
X105529380Y-107259120D01*
X106062780Y-107889040D02*
X99677220Y-108518960D01*
X106062780Y-108518960D02*
X99677220Y-109148880D01*
X106062780Y-109148880D02*
X99677220Y-109778800D01*
X106062780Y-109778800D02*
X99677220Y-110411260D01*
X106062780Y-110411260D02*
X99677220Y-111041180D01*
X106062780Y-111041180D02*
X99677220Y-111671100D01*
X106062780Y-111671100D02*
X105529380Y-111986060D01*
X105529380Y-111986060D02*
X100210620Y-111986060D01*
X100210620Y-111986060D02*
X99677220Y-111671100D01*
X99677220Y-111671100D02*
X99677220Y-107574080D01*
X99677220Y-107574080D02*
X100210620Y-107259120D01*
X100210620Y-107259120D02*
X105529380Y-107259120D01*
X105529380Y-107259120D02*
X106062780Y-107574080D01*
X106062780Y-107574080D02*
X106062780Y-111671100D01*
X100210620Y-112930940D02*
X105529380Y-112930940D01*
X106019600Y-103479600D02*
X99720400Y-103479600D01*
X99720400Y-103479600D02*
X99720400Y-97180400D01*
X99720400Y-97180400D02*
X106019600Y-97180400D01*
X106019600Y-97180400D02*
X106019600Y-103479600D01*
D11*
X101940000Y-93315000D02*
X106340000Y-93315000D01*
X101940000Y-95915000D02*
X106340000Y-95915000D01*
X80195000Y-90425000D02*
X80195000Y-90650000D01*
X87445000Y-90425000D02*
X87445000Y-90750000D01*
X87445000Y-97675000D02*
X87445000Y-97350000D01*
X80195000Y-97675000D02*
X80195000Y-97350000D01*
X80195000Y-90425000D02*
X80520000Y-90425000D01*
X80195000Y-97675000D02*
X80520000Y-97675000D01*
X87445000Y-97675000D02*
X87120000Y-97675000D01*
X87445000Y-90425000D02*
X87120000Y-90425000D01*
X80195000Y-90650000D02*
X78770000Y-90650000D01*
X77380000Y-56100000D02*
X143420000Y-56100000D01*
X143420000Y-61180000D02*
X79920000Y-61180000D01*
X143420000Y-56100000D02*
X143420000Y-61180000D01*
X77380000Y-56100000D02*
X77380000Y-58640000D01*
X77100000Y-59910000D02*
X77100000Y-61460000D01*
X77380000Y-58640000D02*
X79920000Y-58640000D01*
X79920000Y-58640000D02*
X79920000Y-61180000D01*
X77100000Y-61460000D02*
X78650000Y-61460000D01*
X124153000Y-86447596D02*
X124153000Y-82847596D01*
X120703000Y-82847596D02*
X120703000Y-86447596D01*
X107180000Y-89575000D02*
X106180000Y-89575000D01*
X106180000Y-88225000D02*
X107180000Y-88225000D01*
X106130822Y-82742596D02*
G75*
G03X106130822Y-82742596I-127000J0D01*
G01*
X105368822Y-82107596D02*
X105368822Y-87187596D01*
X108670822Y-82107596D02*
X108670822Y-87187596D01*
X104860822Y-82107596D02*
X104860822Y-87187596D01*
X104860822Y-82107596D02*
X108670822Y-82107596D01*
X104860822Y-87187596D02*
X108670822Y-87187596D01*
X112099822Y-86171596D02*
X112099822Y-89219596D01*
X112099822Y-89219596D02*
X119211822Y-89219596D01*
X119211822Y-89219596D02*
X119211822Y-86171596D01*
X112099822Y-83123596D02*
X112099822Y-82361596D01*
X112099822Y-82361596D02*
X113623822Y-80075596D01*
X113623822Y-80075596D02*
X117687822Y-80075596D01*
X117687822Y-80075596D02*
X119211822Y-82361596D01*
X119211822Y-82361596D02*
X119211822Y-83123596D01*
X109677905Y-102616000D02*
G75*
G03X109677905Y-102616000I-457905J0D01*
G01*
X107950000Y-99060000D02*
G75*
G03X109220000Y-97790000I0J1270000D01*
G01*
X109220000Y-97790000D02*
G75*
G03X107950000Y-96520000I-1270000J0D01*
G01*
X107950000Y-91440000D02*
X123190000Y-91440000D01*
X123190000Y-91440000D02*
X123190000Y-104140000D01*
X123190000Y-104140000D02*
X107950000Y-104140000D01*
X107950000Y-104140000D02*
X107950000Y-91440000D01*
X80772000Y-75692000D02*
G75*
G03X80772000Y-75692000I-127000J0D01*
G01*
X80010000Y-76327000D02*
X85090000Y-76327000D01*
X80010000Y-73025000D02*
X85090000Y-73025000D01*
X80010000Y-76835000D02*
X85090000Y-76835000D01*
X80010000Y-76835000D02*
X80010000Y-73025000D01*
X85090000Y-76835000D02*
X85090000Y-73025000D01*
X68707000Y-70612000D02*
G75*
G03X68707000Y-70612000I-127000J0D01*
G01*
X67945000Y-71247000D02*
X73025000Y-71247000D01*
X67945000Y-67945000D02*
X73025000Y-67945000D01*
X67945000Y-71755000D02*
X73025000Y-71755000D01*
X67945000Y-71755000D02*
X67945000Y-67945000D01*
X73025000Y-71755000D02*
X73025000Y-67945000D01*
X69415000Y-89545000D02*
X69415000Y-97045000D01*
X69415000Y-97045000D02*
X69915000Y-97045000D01*
X69915000Y-97045000D02*
X69915000Y-89545000D01*
X69915000Y-89545000D02*
X69415000Y-89545000D01*
X72615000Y-87845000D02*
X73715000Y-87845000D01*
X73715000Y-87845000D02*
X73715000Y-89495000D01*
X73715000Y-89495000D02*
X73215000Y-89495000D01*
X73215000Y-89495000D02*
X73215000Y-88345000D01*
X73215000Y-88345000D02*
X72615000Y-88345000D01*
X72615000Y-88345000D02*
X72615000Y-87845000D01*
X72615000Y-98745000D02*
X73715000Y-98745000D01*
X73715000Y-98745000D02*
X73715000Y-97095000D01*
X73715000Y-97095000D02*
X73215000Y-97095000D01*
X73215000Y-97095000D02*
X73215000Y-98245000D01*
X73215000Y-98245000D02*
X72615000Y-98245000D01*
X72615000Y-98245000D02*
X72615000Y-98745000D01*
X75565000Y-90170000D02*
X76065000Y-89920000D01*
X76065000Y-89920000D02*
X76065000Y-90420000D01*
X76065000Y-90420000D02*
X75565000Y-90170000D01*
X72065000Y-89920000D02*
X71565000Y-89920000D01*
X71565000Y-89920000D02*
X71565000Y-90420000D01*
X71565000Y-90420000D02*
X72065000Y-90420000D01*
X72065000Y-90420000D02*
X72065000Y-89920000D01*
X72065000Y-91170000D02*
X71565000Y-91170000D01*
X71565000Y-91170000D02*
X71565000Y-91670000D01*
X71565000Y-91670000D02*
X72065000Y-91670000D01*
X72065000Y-91670000D02*
X72065000Y-91170000D01*
X72065000Y-92420000D02*
X71565000Y-92420000D01*
X71565000Y-92420000D02*
X71565000Y-92920000D01*
X71565000Y-92920000D02*
X72065000Y-92920000D01*
X72065000Y-92920000D02*
X72065000Y-92420000D01*
X72065000Y-93670000D02*
X71565000Y-93670000D01*
X71565000Y-93670000D02*
X71565000Y-94170000D01*
X71565000Y-94170000D02*
X72065000Y-94170000D01*
X72065000Y-94170000D02*
X72065000Y-93670000D01*
X72065000Y-94920000D02*
X71565000Y-94920000D01*
X71565000Y-94920000D02*
X71565000Y-95420000D01*
X71565000Y-95420000D02*
X72065000Y-95420000D01*
X72065000Y-95420000D02*
X72065000Y-94920000D01*
X72065000Y-96170000D02*
X71565000Y-96170000D01*
X71565000Y-96170000D02*
X71565000Y-96670000D01*
X71565000Y-96670000D02*
X72065000Y-96670000D01*
X72065000Y-96670000D02*
X72065000Y-96170000D01*
X90600000Y-94250000D02*
X90600000Y-96250000D01*
X93550000Y-96250000D02*
X93550000Y-94250000D01*
X126405000Y-88230000D02*
X126405000Y-89230000D01*
X125055000Y-89230000D02*
X125055000Y-88230000D01*
X82050000Y-67905000D02*
X83050000Y-67905000D01*
X83050000Y-69255000D02*
X82050000Y-69255000D01*
X71890000Y-62825000D02*
X72890000Y-62825000D01*
X72890000Y-64175000D02*
X71890000Y-64175000D01*
X109895000Y-70620000D02*
X109895000Y-71620000D01*
X108545000Y-71620000D02*
X108545000Y-70620000D01*
X111800000Y-70620000D02*
X111800000Y-71620000D01*
X110450000Y-71620000D02*
X110450000Y-70620000D01*
X124980000Y-91330980D02*
X124980000Y-94030980D01*
X126480000Y-91330980D02*
X126480000Y-94030980D01*
X125580000Y-92830980D02*
X125830000Y-92830980D01*
X125830000Y-92830980D02*
X125680000Y-92680980D01*
X126080000Y-92580980D02*
X125380000Y-92580980D01*
X125730000Y-92930980D02*
X125730000Y-93280980D01*
X125730000Y-92580980D02*
X126080000Y-92930980D01*
X126080000Y-92930980D02*
X125380000Y-92930980D01*
X125380000Y-92930980D02*
X125730000Y-92580980D01*
X74002381Y-65751905D02*
X73002381Y-65751905D01*
X73478571Y-65751905D02*
X73478571Y-65180476D01*
X74002381Y-65180476D02*
X73002381Y-65180476D01*
X74002381Y-64180476D02*
X74002381Y-64751905D01*
X74002381Y-64466191D02*
X73002381Y-64466191D01*
X73145238Y-64561429D01*
X73240476Y-64656667D01*
X73288095Y-64751905D01*
X72898095Y-76862381D02*
X72898095Y-77671905D01*
X72945714Y-77767143D01*
X72993333Y-77814762D01*
X73088571Y-77862381D01*
X73279048Y-77862381D01*
X73374286Y-77814762D01*
X73421905Y-77767143D01*
X73469524Y-77671905D01*
X73469524Y-76862381D01*
X74374286Y-77195714D02*
X74374286Y-77862381D01*
X74136190Y-76814762D02*
X73898095Y-77529048D01*
X74517143Y-77529048D01*
D13*
X102362000Y-94415429D02*
X102362000Y-95504000D01*
X102289428Y-95721714D01*
X102144285Y-95866857D01*
X101926571Y-95939429D01*
X101781428Y-95939429D01*
X103886000Y-95939429D02*
X103015143Y-95939429D01*
X103450571Y-95939429D02*
X103450571Y-94415429D01*
X103305428Y-94633143D01*
X103160286Y-94778286D01*
X103015143Y-94850857D01*
X99640572Y-93326857D02*
X99858286Y-93399429D01*
X100221143Y-93399429D01*
X100366286Y-93326857D01*
X100438857Y-93254286D01*
X100511429Y-93109143D01*
X100511429Y-92964000D01*
X100438857Y-92818857D01*
X100366286Y-92746286D01*
X100221143Y-92673714D01*
X99930857Y-92601143D01*
X99785715Y-92528571D01*
X99713143Y-92456000D01*
X99640572Y-92310857D01*
X99640572Y-92165714D01*
X99713143Y-92020571D01*
X99785715Y-91948000D01*
X99930857Y-91875429D01*
X100293715Y-91875429D01*
X100511429Y-91948000D01*
X101164572Y-93399429D02*
X101164572Y-91875429D01*
X101672572Y-92964000D01*
X102180572Y-91875429D01*
X102180572Y-93399429D01*
X102833715Y-92964000D02*
X103559429Y-92964000D01*
X102688572Y-93399429D02*
X103196572Y-91875429D01*
X103704572Y-93399429D01*
D11*
X103973334Y-92867381D02*
X103497143Y-92867381D01*
X103497143Y-91867381D01*
X104830477Y-92867381D02*
X104259048Y-92867381D01*
X104544762Y-92867381D02*
X104544762Y-91867381D01*
X104449524Y-92010238D01*
X104354286Y-92105476D01*
X104259048Y-92153095D01*
X82843810Y-88452381D02*
X82843810Y-87452381D01*
X83891429Y-88357143D02*
X83843810Y-88404762D01*
X83700953Y-88452381D01*
X83605715Y-88452381D01*
X83462857Y-88404762D01*
X83367619Y-88309524D01*
X83320000Y-88214286D01*
X83272381Y-88023810D01*
X83272381Y-87880952D01*
X83320000Y-87690476D01*
X83367619Y-87595238D01*
X83462857Y-87500000D01*
X83605715Y-87452381D01*
X83700953Y-87452381D01*
X83843810Y-87500000D01*
X83891429Y-87547619D01*
X84843810Y-88452381D02*
X84272381Y-88452381D01*
X84558095Y-88452381D02*
X84558095Y-87452381D01*
X84462857Y-87595238D01*
X84367619Y-87690476D01*
X84272381Y-87738095D01*
X74002381Y-60671905D02*
X73002381Y-60671905D01*
X73478571Y-60671905D02*
X73478571Y-60100476D01*
X74002381Y-60100476D02*
X73002381Y-60100476D01*
X73097619Y-59671905D02*
X73050000Y-59624286D01*
X73002381Y-59529048D01*
X73002381Y-59290952D01*
X73050000Y-59195714D01*
X73097619Y-59148095D01*
X73192857Y-59100476D01*
X73288095Y-59100476D01*
X73430952Y-59148095D01*
X74002381Y-59719524D01*
X74002381Y-59100476D01*
X125785143Y-84814262D02*
X125832762Y-84861881D01*
X125880381Y-85004738D01*
X125880381Y-85099976D01*
X125832762Y-85242834D01*
X125737524Y-85338072D01*
X125642286Y-85385691D01*
X125451810Y-85433310D01*
X125308952Y-85433310D01*
X125118476Y-85385691D01*
X125023238Y-85338072D01*
X124928000Y-85242834D01*
X124880381Y-85099976D01*
X124880381Y-85004738D01*
X124928000Y-84861881D01*
X124975619Y-84814262D01*
X125880381Y-83861881D02*
X125880381Y-84433310D01*
X125880381Y-84147596D02*
X124880381Y-84147596D01*
X125023238Y-84242834D01*
X125118476Y-84338072D01*
X125166095Y-84433310D01*
X106513334Y-87452381D02*
X106180000Y-86976190D01*
X105941905Y-87452381D02*
X105941905Y-86452381D01*
X106322858Y-86452381D01*
X106418096Y-86500000D01*
X106465715Y-86547619D01*
X106513334Y-86642857D01*
X106513334Y-86785714D01*
X106465715Y-86880952D01*
X106418096Y-86928571D01*
X106322858Y-86976190D01*
X105941905Y-86976190D01*
X107465715Y-87452381D02*
X106894286Y-87452381D01*
X107180000Y-87452381D02*
X107180000Y-86452381D01*
X107084762Y-86595238D01*
X106989524Y-86690476D01*
X106894286Y-86738095D01*
X106218203Y-85409501D02*
X107027727Y-85409501D01*
X107122965Y-85361882D01*
X107170584Y-85314263D01*
X107218203Y-85219025D01*
X107218203Y-85028548D01*
X107170584Y-84933310D01*
X107122965Y-84885691D01*
X107027727Y-84838072D01*
X106218203Y-84838072D01*
X107218203Y-83838072D02*
X107218203Y-84409501D01*
X107218203Y-84123787D02*
X106218203Y-84123787D01*
X106361060Y-84219025D01*
X106456298Y-84314263D01*
X106503917Y-84409501D01*
X114893917Y-83337977D02*
X114893917Y-84147501D01*
X114941536Y-84242739D01*
X114989155Y-84290358D01*
X115084393Y-84337977D01*
X115274870Y-84337977D01*
X115370108Y-84290358D01*
X115417727Y-84242739D01*
X115465346Y-84147501D01*
X115465346Y-83337977D01*
X115893917Y-83433215D02*
X115941536Y-83385596D01*
X116036774Y-83337977D01*
X116274870Y-83337977D01*
X116370108Y-83385596D01*
X116417727Y-83433215D01*
X116465346Y-83528453D01*
X116465346Y-83623691D01*
X116417727Y-83766548D01*
X115846298Y-84337977D01*
X116465346Y-84337977D01*
X116078095Y-100282381D02*
X116078095Y-101091905D01*
X116125714Y-101187143D01*
X116173333Y-101234762D01*
X116268571Y-101282381D01*
X116459048Y-101282381D01*
X116554286Y-101234762D01*
X116601905Y-101187143D01*
X116649524Y-101091905D01*
X116649524Y-100282381D01*
X117030476Y-100282381D02*
X117649524Y-100282381D01*
X117316190Y-100663333D01*
X117459048Y-100663333D01*
X117554286Y-100710952D01*
X117601905Y-100758571D01*
X117649524Y-100853810D01*
X117649524Y-101091905D01*
X117601905Y-101187143D01*
X117554286Y-101234762D01*
X117459048Y-101282381D01*
X117173333Y-101282381D01*
X117078095Y-101234762D01*
X117030476Y-101187143D01*
X81788095Y-74382381D02*
X81788095Y-75191905D01*
X81835714Y-75287143D01*
X81883333Y-75334762D01*
X81978571Y-75382381D01*
X82169048Y-75382381D01*
X82264286Y-75334762D01*
X82311905Y-75287143D01*
X82359524Y-75191905D01*
X82359524Y-74382381D01*
X83311905Y-74382381D02*
X82835714Y-74382381D01*
X82788095Y-74858571D01*
X82835714Y-74810952D01*
X82930952Y-74763333D01*
X83169048Y-74763333D01*
X83264286Y-74810952D01*
X83311905Y-74858571D01*
X83359524Y-74953810D01*
X83359524Y-75191905D01*
X83311905Y-75287143D01*
X83264286Y-75334762D01*
X83169048Y-75382381D01*
X82930952Y-75382381D01*
X82835714Y-75334762D01*
X82788095Y-75287143D01*
X69723095Y-69302381D02*
X69723095Y-70111905D01*
X69770714Y-70207143D01*
X69818333Y-70254762D01*
X69913571Y-70302381D01*
X70104048Y-70302381D01*
X70199286Y-70254762D01*
X70246905Y-70207143D01*
X70294524Y-70111905D01*
X70294524Y-69302381D01*
X71199286Y-69302381D02*
X71008809Y-69302381D01*
X70913571Y-69350000D01*
X70865952Y-69397619D01*
X70770714Y-69540476D01*
X70723095Y-69730952D01*
X70723095Y-70111905D01*
X70770714Y-70207143D01*
X70818333Y-70254762D01*
X70913571Y-70302381D01*
X71104048Y-70302381D01*
X71199286Y-70254762D01*
X71246905Y-70207143D01*
X71294524Y-70111905D01*
X71294524Y-69873810D01*
X71246905Y-69778571D01*
X71199286Y-69730952D01*
X71104048Y-69683333D01*
X70913571Y-69683333D01*
X70818333Y-69730952D01*
X70770714Y-69778571D01*
X70723095Y-69873810D01*
X77267381Y-94747381D02*
X76267381Y-94747381D01*
X77219762Y-94318810D02*
X77267381Y-94175953D01*
X77267381Y-93937857D01*
X77219762Y-93842619D01*
X77172143Y-93795000D01*
X77076905Y-93747381D01*
X76981667Y-93747381D01*
X76886429Y-93795000D01*
X76838810Y-93842619D01*
X76791190Y-93937857D01*
X76743571Y-94128334D01*
X76695952Y-94223572D01*
X76648333Y-94271191D01*
X76553095Y-94318810D01*
X76457857Y-94318810D01*
X76362619Y-94271191D01*
X76315000Y-94223572D01*
X76267381Y-94128334D01*
X76267381Y-93890238D01*
X76315000Y-93747381D01*
X77267381Y-93318810D02*
X76267381Y-93318810D01*
X76267381Y-92937857D01*
X76315000Y-92842619D01*
X76362619Y-92795000D01*
X76457857Y-92747381D01*
X76600714Y-92747381D01*
X76695952Y-92795000D01*
X76743571Y-92842619D01*
X76791190Y-92937857D01*
X76791190Y-93318810D01*
X77267381Y-91795000D02*
X77267381Y-92366429D01*
X77267381Y-92080715D02*
X76267381Y-92080715D01*
X76410238Y-92175953D01*
X76505476Y-92271191D01*
X76553095Y-92366429D01*
X89732143Y-95416666D02*
X89779762Y-95464285D01*
X89827381Y-95607142D01*
X89827381Y-95702380D01*
X89779762Y-95845238D01*
X89684524Y-95940476D01*
X89589286Y-95988095D01*
X89398810Y-96035714D01*
X89255952Y-96035714D01*
X89065476Y-95988095D01*
X88970238Y-95940476D01*
X88875000Y-95845238D01*
X88827381Y-95702380D01*
X88827381Y-95607142D01*
X88875000Y-95464285D01*
X88922619Y-95416666D01*
X88922619Y-95035714D02*
X88875000Y-94988095D01*
X88827381Y-94892857D01*
X88827381Y-94654761D01*
X88875000Y-94559523D01*
X88922619Y-94511904D01*
X89017857Y-94464285D01*
X89113095Y-94464285D01*
X89255952Y-94511904D01*
X89827381Y-95083333D01*
X89827381Y-94464285D01*
X124282381Y-88896666D02*
X123806190Y-89230000D01*
X124282381Y-89468095D02*
X123282381Y-89468095D01*
X123282381Y-89087142D01*
X123330000Y-88991904D01*
X123377619Y-88944285D01*
X123472857Y-88896666D01*
X123615714Y-88896666D01*
X123710952Y-88944285D01*
X123758571Y-88991904D01*
X123806190Y-89087142D01*
X123806190Y-89468095D01*
X123377619Y-88515714D02*
X123330000Y-88468095D01*
X123282381Y-88372857D01*
X123282381Y-88134761D01*
X123330000Y-88039523D01*
X123377619Y-87991904D01*
X123472857Y-87944285D01*
X123568095Y-87944285D01*
X123710952Y-87991904D01*
X124282381Y-88563333D01*
X124282381Y-87944285D01*
X82383334Y-70932381D02*
X82050000Y-70456190D01*
X81811905Y-70932381D02*
X81811905Y-69932381D01*
X82192858Y-69932381D01*
X82288096Y-69980000D01*
X82335715Y-70027619D01*
X82383334Y-70122857D01*
X82383334Y-70265714D01*
X82335715Y-70360952D01*
X82288096Y-70408571D01*
X82192858Y-70456190D01*
X81811905Y-70456190D01*
X83288096Y-69932381D02*
X82811905Y-69932381D01*
X82764286Y-70408571D01*
X82811905Y-70360952D01*
X82907143Y-70313333D01*
X83145239Y-70313333D01*
X83240477Y-70360952D01*
X83288096Y-70408571D01*
X83335715Y-70503810D01*
X83335715Y-70741905D01*
X83288096Y-70837143D01*
X83240477Y-70884762D01*
X83145239Y-70932381D01*
X82907143Y-70932381D01*
X82811905Y-70884762D01*
X82764286Y-70837143D01*
X72223334Y-65852381D02*
X71890000Y-65376190D01*
X71651905Y-65852381D02*
X71651905Y-64852381D01*
X72032858Y-64852381D01*
X72128096Y-64900000D01*
X72175715Y-64947619D01*
X72223334Y-65042857D01*
X72223334Y-65185714D01*
X72175715Y-65280952D01*
X72128096Y-65328571D01*
X72032858Y-65376190D01*
X71651905Y-65376190D01*
X73080477Y-64852381D02*
X72890000Y-64852381D01*
X72794762Y-64900000D01*
X72747143Y-64947619D01*
X72651905Y-65090476D01*
X72604286Y-65280952D01*
X72604286Y-65661905D01*
X72651905Y-65757143D01*
X72699524Y-65804762D01*
X72794762Y-65852381D01*
X72985239Y-65852381D01*
X73080477Y-65804762D01*
X73128096Y-65757143D01*
X73175715Y-65661905D01*
X73175715Y-65423810D01*
X73128096Y-65328571D01*
X73080477Y-65280952D01*
X72985239Y-65233333D01*
X72794762Y-65233333D01*
X72699524Y-65280952D01*
X72651905Y-65328571D01*
X72604286Y-65423810D01*
X107772381Y-71286666D02*
X107296190Y-71620000D01*
X107772381Y-71858095D02*
X106772381Y-71858095D01*
X106772381Y-71477142D01*
X106820000Y-71381904D01*
X106867619Y-71334285D01*
X106962857Y-71286666D01*
X107105714Y-71286666D01*
X107200952Y-71334285D01*
X107248571Y-71381904D01*
X107296190Y-71477142D01*
X107296190Y-71858095D01*
X106772381Y-70953333D02*
X106772381Y-70286666D01*
X107772381Y-70715238D01*
X109677381Y-71286666D02*
X109201190Y-71620000D01*
X109677381Y-71858095D02*
X108677381Y-71858095D01*
X108677381Y-71477142D01*
X108725000Y-71381904D01*
X108772619Y-71334285D01*
X108867857Y-71286666D01*
X109010714Y-71286666D01*
X109105952Y-71334285D01*
X109153571Y-71381904D01*
X109201190Y-71477142D01*
X109201190Y-71858095D01*
X109105952Y-70715238D02*
X109058333Y-70810476D01*
X109010714Y-70858095D01*
X108915476Y-70905714D01*
X108867857Y-70905714D01*
X108772619Y-70858095D01*
X108725000Y-70810476D01*
X108677381Y-70715238D01*
X108677381Y-70524761D01*
X108725000Y-70429523D01*
X108772619Y-70381904D01*
X108867857Y-70334285D01*
X108915476Y-70334285D01*
X109010714Y-70381904D01*
X109058333Y-70429523D01*
X109105952Y-70524761D01*
X109105952Y-70715238D01*
X109153571Y-70810476D01*
X109201190Y-70858095D01*
X109296429Y-70905714D01*
X109486905Y-70905714D01*
X109582143Y-70858095D01*
X109629762Y-70810476D01*
X109677381Y-70715238D01*
X109677381Y-70524761D01*
X109629762Y-70429523D01*
X109582143Y-70381904D01*
X109486905Y-70334285D01*
X109296429Y-70334285D01*
X109201190Y-70381904D01*
X109153571Y-70429523D01*
X109105952Y-70524761D01*
X127932381Y-93669075D02*
X126932381Y-93669075D01*
X126932381Y-93430980D01*
X126980000Y-93288122D01*
X127075238Y-93192884D01*
X127170476Y-93145265D01*
X127360952Y-93097646D01*
X127503810Y-93097646D01*
X127694286Y-93145265D01*
X127789524Y-93192884D01*
X127884762Y-93288122D01*
X127932381Y-93430980D01*
X127932381Y-93669075D01*
X127932381Y-92145265D02*
X127932381Y-92716694D01*
X127932381Y-92430980D02*
X126932381Y-92430980D01*
X127075238Y-92526218D01*
X127170476Y-92621456D01*
X127218095Y-92716694D01*
M02*
